<svg width="671" height="140" viewBox="0 0 671 140" fill="none" xmlns="http://www.w3.org/2000/svg">
<rect x="336" width="257" height="140" rx="15" fill="#27077A"/>
<path d="M18.1364 117H0.136364L32.9091 23.9091H53.7273L86.5455 117H68.5455L43.6818 43H42.9545L18.1364 117ZM18.7273 80.5H67.8182V94.0455H18.7273V80.5ZM89.1164 23.9091L113.344 97.1818H114.298L138.48 23.9091H157.025L124.207 117H103.389L70.6164 23.9091H89.1164ZM158.846 117H140.846L173.619 23.9091H194.437L227.255 117H209.255L184.392 43H183.665L158.846 117ZM159.437 80.5H208.528V94.0455H159.437V80.5ZM227.997 23.9091H248.633L276.27 91.3636H277.36L304.997 23.9091H325.633V117H309.451V53.0455H308.588L282.86 116.727H270.77L245.042 52.9091H244.179V117H227.997V23.9091Z" fill="#27077A"/>
<path d="M345.091 38.0455V23.9091H419.364V38.0455H390.591V117H373.864V38.0455H345.091ZM428.562 117V23.9091H489.107V38.0455H445.425V63.3182H485.971V77.4545H445.425V102.864H489.471V117H428.562ZM580.874 55.3182H563.874C563.389 52.5303 562.495 50.0606 561.192 47.9091C559.889 45.7273 558.268 43.8788 556.328 42.3636C554.389 40.8485 552.177 39.7121 549.692 38.9545C547.237 38.1667 544.586 37.7727 541.737 37.7727C536.677 37.7727 532.192 39.0455 528.283 41.5909C524.374 44.1061 521.313 47.803 519.101 52.6818C516.889 57.5303 515.783 63.4545 515.783 70.4545C515.783 77.5758 516.889 83.5758 519.101 88.4545C521.343 93.303 524.404 96.9697 528.283 99.4545C532.192 101.909 536.662 103.136 541.692 103.136C544.48 103.136 547.086 102.773 549.51 102.045C551.965 101.288 554.162 100.182 556.101 98.7273C558.071 97.2727 559.722 95.4848 561.055 93.3636C562.419 91.2424 563.358 88.8182 563.874 86.0909L580.874 86.1818C580.237 90.6061 578.858 94.7576 576.737 98.6364C574.646 102.515 571.904 105.939 568.51 108.909C565.116 111.848 561.146 114.152 556.601 115.818C552.055 117.455 547.01 118.273 541.465 118.273C533.283 118.273 525.98 116.379 519.555 112.591C513.131 108.803 508.071 103.333 504.374 96.1818C500.677 89.0303 498.828 80.4545 498.828 70.4545C498.828 60.4242 500.692 51.8485 504.419 44.7273C508.146 37.5758 513.222 32.1061 519.646 28.3182C526.071 24.5303 533.343 22.6364 541.465 22.6364C546.646 22.6364 551.465 23.3636 555.919 24.8182C560.374 26.2727 564.343 28.4091 567.828 31.2273C571.313 34.0151 574.177 37.4394 576.419 41.5C578.692 45.5303 580.177 50.1364 580.874 55.3182Z" fill="white"/>
<rect x="601" y="23" width="13" height="94" rx="5" fill="#27077A"/>
<rect x="619" y="23" width="9" height="94" rx="4.5" fill="#27077A"/>
<rect x="637" y="23" width="6" height="94" rx="3" fill="#27077A"/>
<rect x="653" y="23" width="5" height="94" rx="2.5" fill="#27077A"/>
<rect x="668" y="23" width="3" height="94" rx="1.5" fill="#27077A"/>
</svg>
