<svg width="3165" height="581" viewBox="0 0 3165 581" fill="none" xmlns="http://www.w3.org/2000/svg">
<path d="M1083.1 158.364V370H1025.64V158.364H1083.1ZM1168.2 280.716V370H1111.15V211.273H1165.3V241.447H1166.96C1170.4 231.389 1176.46 223.501 1185.14 217.783C1193.89 212.065 1204.09 209.206 1215.73 209.206C1226.96 209.206 1236.71 211.789 1244.98 216.956C1253.31 222.054 1259.75 229.081 1264.3 238.037C1268.92 246.993 1271.19 257.224 1271.12 268.729V370H1214.08V280.716C1214.15 272.862 1212.15 266.696 1208.08 262.218C1204.09 257.74 1198.51 255.501 1191.34 255.501C1186.66 255.501 1182.56 256.535 1179.05 258.602C1175.6 260.599 1172.95 263.493 1171.09 267.282C1169.23 271.002 1168.26 275.48 1168.2 280.716ZM1393.94 211.273V252.608H1289.36V211.273H1393.94ZM1309.61 173.244H1366.66V318.951C1366.66 321.156 1367.04 323.016 1367.79 324.531C1368.55 325.978 1369.72 327.08 1371.31 327.838C1372.89 328.527 1374.92 328.871 1377.4 328.871C1379.13 328.871 1381.12 328.665 1383.4 328.251C1385.74 327.838 1387.46 327.494 1388.56 327.218L1396.83 367.313C1394.28 368.071 1390.63 369.001 1385.88 370.103C1381.19 371.206 1375.61 371.929 1369.14 372.273C1356.05 372.962 1345.06 371.619 1336.17 368.243C1327.28 364.799 1320.6 359.391 1316.12 352.019C1311.65 344.648 1309.48 335.416 1309.61 324.325V173.244ZM1491.57 372.893C1474.62 372.893 1460.01 369.656 1447.75 363.18C1435.56 356.635 1426.15 347.266 1419.54 335.072C1412.99 322.809 1409.72 308.135 1409.72 291.05C1409.72 274.653 1413.03 260.324 1419.64 248.061C1426.26 235.798 1435.59 226.257 1447.65 219.436C1459.7 212.616 1473.93 209.206 1490.33 209.206C1502.31 209.206 1513.16 211.066 1522.88 214.786C1532.59 218.506 1540.89 223.914 1547.78 231.01C1554.67 238.037 1559.98 246.58 1563.7 256.638C1567.42 266.696 1569.28 278.029 1569.28 290.636V303.864H1427.5V272.449H1516.78C1516.71 267.902 1515.54 263.906 1513.27 260.462C1511.06 256.948 1508.07 254.227 1504.28 252.298C1500.56 250.3 1496.32 249.301 1491.57 249.301C1486.95 249.301 1482.71 250.3 1478.86 252.298C1475 254.227 1471.9 256.914 1469.56 260.358C1467.28 263.803 1466.08 267.833 1465.94 272.449V306.344C1465.94 311.442 1467.01 315.989 1469.14 319.984C1471.28 323.98 1474.34 327.115 1478.34 329.388C1482.33 331.662 1487.16 332.798 1492.81 332.798C1496.73 332.798 1500.32 332.247 1503.55 331.145C1506.86 330.043 1509.68 328.458 1512.03 326.391C1514.37 324.256 1516.09 321.707 1517.19 318.744H1569.28C1567.49 329.767 1563.25 339.343 1556.57 347.472C1549.88 355.533 1541.03 361.802 1530.01 366.28C1519.05 370.689 1506.24 372.893 1491.57 372.893ZM1649.6 280.716V370H1592.55V211.273H1646.7V241.447H1648.36C1651.8 231.389 1657.86 223.501 1666.54 217.783C1675.29 212.065 1685.49 209.206 1697.13 209.206C1708.36 209.206 1718.11 211.789 1726.38 216.956C1734.71 222.054 1741.15 229.081 1745.7 238.037C1750.32 246.993 1752.59 257.224 1752.52 268.729V370H1695.48V280.716C1695.55 272.862 1693.55 266.696 1689.48 262.218C1685.49 257.74 1679.91 255.501 1672.74 255.501C1668.06 255.501 1663.96 256.535 1660.45 258.602C1657 260.599 1654.35 263.493 1652.49 267.282C1650.63 271.002 1649.66 275.48 1649.6 280.716ZM1925.77 262.942H1873.27C1873 259.704 1871.86 256.914 1869.86 254.571C1867.86 252.229 1865.28 250.438 1862.11 249.198C1859.01 247.889 1855.57 247.234 1851.78 247.234C1846.89 247.234 1842.68 248.13 1839.17 249.921C1835.66 251.712 1833.93 254.261 1834 257.568C1833.93 259.911 1834.93 262.081 1837 264.078C1839.14 266.076 1843.23 267.626 1849.3 268.729L1881.54 274.516C1897.8 277.478 1909.89 282.473 1917.81 289.5C1925.8 296.458 1929.83 305.793 1929.9 317.504C1929.83 328.803 1926.46 338.62 1919.77 346.956C1913.16 355.223 1904.1 361.63 1892.6 366.176C1881.16 370.654 1868.1 372.893 1853.43 372.893C1829.18 372.893 1810.2 367.933 1796.49 358.013C1782.85 348.092 1775.24 335.003 1773.65 318.744H1830.28C1831.04 323.773 1833.52 327.666 1837.72 330.422C1841.99 333.108 1847.37 334.452 1853.84 334.452C1859.08 334.452 1863.39 333.556 1866.76 331.765C1870.21 329.974 1871.96 327.425 1872.03 324.118C1871.96 321.087 1870.45 318.675 1867.48 316.884C1864.59 315.093 1860.04 313.646 1853.84 312.544L1825.74 307.584C1809.55 304.759 1797.42 299.386 1789.36 291.463C1781.3 283.54 1777.3 273.344 1777.37 260.875C1777.3 249.852 1780.2 240.517 1786.05 232.87C1791.98 225.154 1800.42 219.299 1811.37 215.303C1822.39 211.238 1835.45 209.206 1850.54 209.206C1873.48 209.206 1891.56 213.96 1904.79 223.467C1918.09 232.974 1925.08 246.132 1925.77 262.942ZM1951.76 370V211.273H2008.8V370H1951.76ZM1980.28 194.739C1972.56 194.739 1965.95 192.19 1960.44 187.092C1954.93 181.994 1952.17 175.862 1952.17 168.697C1952.17 161.533 1954.93 155.401 1960.44 150.303C1965.95 145.205 1972.56 142.656 1980.28 142.656C1988.06 142.656 1994.68 145.205 2000.12 150.303C2005.63 155.401 2008.39 161.533 2008.39 168.697C2008.39 175.862 2005.63 181.994 2000.12 187.092C1994.68 192.19 1988.06 194.739 1980.28 194.739ZM2132.93 211.273V252.608H2026.7V211.273H2132.93ZM2046.96 370V206.726C2046.96 193.636 2049.3 182.786 2053.98 174.174C2058.67 165.563 2065.28 159.121 2073.82 154.85C2082.37 150.579 2092.43 148.443 2104 148.443C2111.23 148.443 2118.26 148.994 2125.08 150.097C2131.97 151.199 2137.07 152.163 2140.37 152.99L2132.11 193.912C2130.04 193.292 2127.63 192.81 2124.87 192.465C2122.12 192.052 2119.71 191.845 2117.64 191.845C2112.27 191.845 2108.65 192.982 2106.79 195.255C2104.93 197.529 2104 200.526 2104 204.246V370H2046.96ZM2189.67 429.523C2183.12 429.523 2176.89 429.006 2170.96 427.973C2165.04 427.008 2159.84 425.665 2155.36 423.942L2167.76 383.434C2172.44 385.087 2176.71 386.155 2180.57 386.637C2184.5 387.12 2187.84 386.844 2190.6 385.811C2193.42 384.777 2195.45 382.814 2196.69 379.92L2197.93 377.027L2142.13 211.273H2201.65L2227.28 321.224H2228.93L2254.98 211.273H2314.91L2257.04 383.227C2254.15 391.977 2249.95 399.83 2244.44 406.788C2238.99 413.815 2231.83 419.361 2222.94 423.426C2214.05 427.49 2202.96 429.523 2189.67 429.523ZM2388.28 158.364H2459.79L2508.98 278.236H2511.46L2560.65 158.364H2632.16V370H2575.94V247.648H2574.29L2527.17 368.347H2493.27L2446.15 246.821H2444.5V370H2388.28V158.364ZM2660.22 370V211.273H2717.26V370H2660.22ZM2688.74 194.739C2681.02 194.739 2674.41 192.19 2668.9 187.092C2663.39 181.994 2660.63 175.862 2660.63 168.697C2660.63 161.533 2663.39 155.401 2668.9 150.303C2674.41 145.205 2681.02 142.656 2688.74 142.656C2696.52 142.656 2703.14 145.205 2708.58 150.303C2714.09 155.401 2716.85 161.533 2716.85 168.697C2716.85 175.862 2714.09 181.994 2708.58 187.092C2703.14 192.19 2696.52 194.739 2688.74 194.739ZM2803.78 372.067C2792.48 372.067 2782.08 369.104 2772.57 363.18C2763.13 357.255 2755.55 348.265 2749.84 336.208C2744.19 324.152 2741.36 308.962 2741.36 290.636C2741.36 271.484 2744.32 255.915 2750.25 243.928C2756.24 231.94 2763.96 223.157 2773.4 217.576C2782.9 211.996 2792.89 209.206 2803.37 209.206C2811.22 209.206 2818.11 210.584 2824.03 213.339C2829.96 216.026 2834.92 219.643 2838.91 224.19C2842.91 228.668 2845.94 233.594 2848.01 238.967H2848.83V158.364H2905.88V370H2849.25V343.959H2848.01C2845.8 349.332 2842.63 354.155 2838.5 358.426C2834.44 362.629 2829.48 365.97 2823.62 368.45C2817.83 370.861 2811.22 372.067 2803.78 372.067ZM2824.86 328.251C2830.1 328.251 2834.57 326.736 2838.29 323.705C2842.08 320.604 2844.98 316.264 2846.97 310.684C2849.04 305.035 2850.07 298.352 2850.07 290.636C2850.07 282.783 2849.04 276.066 2846.97 270.485C2844.98 264.836 2842.08 260.531 2838.29 257.568C2834.57 254.537 2830.1 253.021 2824.86 253.021C2819.62 253.021 2815.15 254.537 2811.43 257.568C2807.77 260.531 2804.95 264.836 2802.95 270.485C2801.02 276.066 2800.06 282.783 2800.06 290.636C2800.06 298.49 2801.02 305.241 2802.95 310.891C2804.95 316.471 2807.77 320.777 2811.43 323.808C2815.15 326.77 2819.62 328.251 2824.86 328.251ZM2933.88 370V211.273H2990.92V370H2933.88ZM2962.4 194.739C2954.69 194.739 2948.07 192.19 2942.56 187.092C2937.05 181.994 2934.29 175.862 2934.29 168.697C2934.29 161.533 2937.05 155.401 2942.56 150.303C2948.07 145.205 2954.69 142.656 2962.4 142.656C2970.19 142.656 2976.8 145.205 2982.24 150.303C2987.75 155.401 2990.51 161.533 2990.51 168.697C2990.51 175.862 2987.75 181.994 2982.24 187.092C2976.8 192.19 2970.19 194.739 2962.4 194.739ZM3064.22 372.48C3054.09 372.48 3045.13 370.827 3037.35 367.52C3029.63 364.144 3023.57 359.046 3019.16 352.226C3014.75 345.406 3012.55 336.725 3012.55 326.185C3012.55 317.504 3014.03 310.098 3016.99 303.967C3019.95 297.767 3024.09 292.703 3029.39 288.776C3034.7 284.849 3040.86 281.853 3047.89 279.786C3054.98 277.719 3062.63 276.376 3070.83 275.756C3079.72 275.067 3086.85 274.24 3092.22 273.276C3097.66 272.242 3101.59 270.83 3104 269.039C3106.41 267.179 3107.62 264.733 3107.62 261.702V261.288C3107.62 257.155 3106.03 253.986 3102.86 251.781C3099.7 249.577 3095.63 248.474 3090.67 248.474C3085.23 248.474 3080.79 249.68 3077.34 252.091C3073.96 254.434 3071.93 258.05 3071.24 262.942H3018.75C3019.44 253.297 3022.5 244.41 3027.94 236.281C3033.46 228.082 3041.48 221.538 3052.02 216.646C3062.56 211.686 3075.72 209.206 3091.5 209.206C3102.86 209.206 3113.06 210.549 3122.09 213.236C3131.11 215.854 3138.79 219.54 3145.13 224.293C3151.47 228.978 3156.29 234.489 3159.6 240.827C3162.97 247.097 3164.66 253.917 3164.66 261.288V370H3111.34V347.679H3110.1C3106.93 353.604 3103.07 358.392 3098.52 362.043C3094.05 365.694 3088.91 368.347 3083.13 370C3077.41 371.653 3071.11 372.48 3064.22 372.48ZM3082.82 336.518C3087.16 336.518 3091.22 335.623 3095.01 333.832C3098.87 332.04 3102 329.457 3104.42 326.081C3106.83 322.706 3108.03 318.607 3108.03 313.784V300.557C3106.52 301.177 3104.9 301.762 3103.17 302.314C3101.52 302.865 3099.73 303.381 3097.8 303.864C3095.94 304.346 3093.94 304.794 3091.81 305.207C3089.74 305.62 3087.57 305.999 3085.3 306.344C3080.89 307.033 3077.27 308.169 3074.45 309.754C3071.69 311.27 3069.62 313.164 3068.25 315.438C3066.94 317.642 3066.28 320.122 3066.28 322.878C3066.28 327.287 3067.83 330.663 3070.93 333.005C3074.03 335.347 3077.99 336.518 3082.82 336.518Z" fill="white"/>
<rect x="239" y="416" width="416" height="671" rx="100" transform="rotate(-90 239 416)" fill="#3A87D2"/>
<rect x="123" y="504" width="416" height="665" rx="100" transform="rotate(-90 123 504)" fill="#F5C32E"/>
<rect y="581" width="421" height="675" rx="100" transform="rotate(-90 0 581)" fill="#27B54C"/>
</svg>
